<svg version="1.2" xmlns="http://www.w3.org/2000/svg" viewBox="0 0 400 350" width="400" height="350">
	<title>4388302_2299026-ai - Copy</title>
	<style>
		.s0 { fill: #ffffff } 
		.s1 { fill: #1b96ff } 
	</style>
	<g id="BACKGROUND">
		<path id="&lt;Path&gt;" class="s0" d="m533-271v1000h1000v-1000z"/>
		<path id="&lt;Path&gt;" class="s1" d="m69.1 331.7h175.7c38 0 69.1-31 69.1-69.1v-175.5c0-4-0.3-7.9-1-11.7 33.5-27 64.6-42.1 87.1-36.7-100.2-41.5-224 178.5-247.8 221.8l-87.4-130.2 81.6 47.9c49.2-63.1 102.4-111.2 148.3-138.8-12.6-13.1-30.3-21.4-49.9-21.4h-175.7c-38 0-69.1 31.1-69.1 69.1v175.5c0 38.1 31.1 69.1 69.1 69.1z"/>
	</g>
	<g id="OBJECTS">
		<g id="&lt;Group&gt;">
			<g id="&lt;Group&gt;">
				<g id="Objects">
					<g id="&lt;Group&gt;">
						<g id="&lt;Group&gt;">
							<g id="&lt;Group&gt;">
							</g>
						</g>
						<g id="&lt;Group&gt;">
						</g>
						<g id="&lt;Group&gt;">
						</g>
					</g>
				</g>
			</g>
			<g id="&lt;Group&gt;">
				<g id="&lt;Group&gt;">
				</g>
			</g>
		</g>
	</g>
</svg>