<svg width="201" height="228" viewBox="0 0 201 228" fill="none" xmlns="http://www.w3.org/2000/svg">
<path fill-rule="evenodd" clip-rule="evenodd" d="M84.2447 66.4349C87.3637 65.1957 90.9135 64.3412 94.8522 63.9454C95.9205 63.8404 96.6973 62.8889 96.5923 61.8206C96.4836 60.7567 95.5321 59.9755 94.4676 60.0806C90.1367 60.5156 86.2371 61.4633 82.8116 62.8268C81.8136 63.2189 81.3276 64.3493 81.7241 65.3474C82.1199 66.3417 83.2504 66.8308 84.2447 66.4349Z" fill="#738BAB"/>
<path fill-rule="evenodd" clip-rule="evenodd" d="M104.368 63.8715C108.96 64.217 113.162 64.2909 116.999 64.1275C118.071 64.0846 118.907 63.1798 118.86 62.1078C118.817 61.0358 117.909 60.2049 116.84 60.2471C113.139 60.4025 109.088 60.3286 104.66 59.9948C103.592 59.9172 102.659 60.717 102.578 61.7852C102.497 62.8572 103.301 63.7894 104.368 63.8715Z" fill="#738BAB"/>
<path fill-rule="evenodd" clip-rule="evenodd" d="M127.486 62.9778C132.015 62.127 135.856 60.8686 139.084 59.3193C140.051 58.8532 140.458 57.6917 139.992 56.7285C139.53 55.7615 138.369 55.3538 137.401 55.8155C134.441 57.2374 130.919 58.3828 126.767 59.1639C125.714 59.3622 125.02 60.3758 125.217 61.4322C125.416 62.4843 126.434 63.176 127.486 62.9778Z" fill="#738BAB"/>
<path fill-rule="evenodd" clip-rule="evenodd" d="M147 53.9239C150.48 50.5643 152.524 46.6957 153.444 42.7607C153.689 41.7161 153.036 40.6714 151.995 40.4265C150.951 40.1817 149.906 40.8342 149.661 41.8751C148.9 45.1415 147.191 48.342 144.305 51.1273C143.532 51.8731 143.509 53.1042 144.255 53.8735C145 54.6466 146.228 54.6696 147 53.9239Z" fill="#738BAB"/>
<path fill-rule="evenodd" clip-rule="evenodd" d="M152.52 29.3883C150.978 25.2942 148.364 21.8184 145.179 19.6197C144.297 19.0138 143.089 19.235 142.479 20.1169C141.869 20.9987 142.091 22.2105 142.976 22.8202C145.551 24.595 147.637 27.4382 148.884 30.7555C149.26 31.7573 150.379 32.2662 151.385 31.8896C152.387 31.513 152.896 30.3907 152.52 29.3883Z" fill="#738BAB"/>
<path fill-rule="evenodd" clip-rule="evenodd" d="M101.918 19.6123C104.05 9.60688 112.548 4.74029 118.678 4.70486C120.69 4.69305 122.434 5.16722 123.339 6.37905C123.874 7.09745 124.038 8.0607 123.832 9.24146C123.649 10.2979 124.36 11.3041 125.417 11.4861C126.473 11.6689 127.479 10.9579 127.661 9.90144C128.081 7.47405 127.553 5.52766 126.45 4.05607C124.907 1.98601 122.079 0.801523 118.658 0.820788C111.197 0.863668 100.713 6.62391 98.1188 18.8044C97.8938 19.8534 98.5619 20.8825 99.6103 21.1075C100.659 21.3324 101.692 20.6606 101.918 19.6123Z" fill="#738BAB"/>
<path fill-rule="evenodd" clip-rule="evenodd" d="M98.1346 19.6197C100.764 31.738 111.209 37.4709 118.65 37.5175C122.336 37.5368 125.323 36.1658 126.783 33.7925C127.665 32.3632 128.049 30.5417 127.637 28.3163C127.132 25.5782 125.331 22.0707 121.559 17.907C120.841 17.1109 119.609 17.0487 118.817 17.7671C118.02 18.4893 117.958 19.7172 118.68 20.5133C121.306 23.4149 122.863 25.8889 123.547 27.967C124.063 29.5517 124.052 30.822 123.477 31.7579C122.957 32.6006 122.024 33.1095 120.902 33.3892C119.492 33.7384 117.803 33.7117 116.02 33.3345C110.322 32.1301 103.789 27.3648 101.932 18.7963C101.703 17.7472 100.67 17.0835 99.6211 17.3085C98.5734 17.5378 97.9096 18.5713 98.1346 19.6197Z" fill="#738BAB"/>
<path fill-rule="evenodd" clip-rule="evenodd" d="M99.5052 23.0924H125.509C127.653 23.0924 129.393 21.3523 129.393 19.2083C129.393 17.0643 127.653 15.3242 125.509 15.3242H99.5052C97.3612 15.3242 95.6211 17.0643 95.6211 19.2083C95.6211 21.3523 97.3612 23.0924 99.5052 23.0924Z" fill="#1B96FF"/>
<path fill-rule="evenodd" clip-rule="evenodd" d="M20.876 174.711V196.497C20.876 200.785 23.688 204.564 27.7977 205.795C43.4036 210.479 87.3017 223.65 97.711 226.769C99.5288 227.316 101.471 227.316 103.289 226.769C113.698 223.65 157.596 210.479 173.202 205.795C177.312 204.564 180.124 200.785 180.124 196.497C180.124 186.126 180.124 165.436 180.124 165.436C180.124 164.364 179.254 163.494 178.182 163.494C177.11 163.494 176.24 164.364 176.24 165.436V196.497C176.24 199.068 174.55 201.336 172.088 202.078C156.481 206.758 112.58 219.929 102.174 223.052C101.083 223.378 99.9178 223.378 98.8259 223.052L28.9126 202.078C26.4504 201.336 24.7607 199.068 24.7607 196.497V174.711C24.7607 173.639 23.8906 172.769 22.8186 172.769C21.7466 172.769 20.876 173.639 20.876 174.711Z" fill="#738BAB"/>
<path fill-rule="evenodd" clip-rule="evenodd" d="M16.3552 130.704C16.3552 130.704 6.52073 145.285 1.49505 152.735C0.473382 154.25 0.221073 156.16 0.818909 157.889C1.41302 159.617 2.78394 160.969 4.52463 161.532L74.4187 184.242C76.889 185.043 79.5886 184.118 81.0446 181.97C86.253 174.28 102.108 150.89 102.108 150.89C102.45 150.385 102.535 149.748 102.337 149.169C102.14 148.591 101.681 148.14 101.098 147.954L23.4168 122.747C22.3988 122.417 21.3038 122.976 20.9695 123.998C20.6395 125.015 21.1988 126.11 22.2198 126.444L97.4429 150.852L77.8286 179.792C77.3432 180.507 76.4421 180.818 75.6187 180.55L5.72465 157.839C5.14608 157.649 4.68745 157.202 4.4892 156.623C4.29096 156.048 4.37672 155.411 4.71417 154.907L19.5743 132.876C20.1765 131.987 19.9397 130.779 19.0498 130.18C18.1655 129.578 16.9574 129.815 16.3552 130.704Z" fill="#738BAB"/>
<path fill-rule="evenodd" clip-rule="evenodd" d="M166.534 126.331L99.9024 147.954C98.8807 148.284 98.3214 149.379 98.6514 150.401C98.9857 151.418 100.081 151.978 101.098 151.648L167.73 130.029C168.751 129.699 169.31 128.599 168.98 127.582C168.647 126.56 167.551 126.001 166.534 126.331Z" fill="#738BAB"/>
<path fill-rule="evenodd" clip-rule="evenodd" d="M104.392 159.004C104.392 159.004 115.66 175.628 119.956 181.97C121.413 184.118 124.112 185.043 126.583 184.242C138.037 180.521 181.721 166.325 196.477 161.532C198.217 160.969 199.588 159.617 200.182 157.889C200.78 156.161 200.528 154.25 199.506 152.735C193.416 143.704 179.794 123.507 179.794 123.507C179.192 122.622 177.985 122.385 177.095 122.983C176.209 123.585 175.972 124.792 176.57 125.682C176.57 125.682 190.196 145.876 196.286 154.906C196.624 155.411 196.709 156.048 196.511 156.622C196.313 157.201 195.855 157.648 195.276 157.838L125.382 180.548C124.558 180.816 123.657 180.506 123.172 179.791L107.608 156.824C107.006 155.935 105.798 155.706 104.909 156.308C104.023 156.906 103.79 158.118 104.392 159.004Z" fill="#738BAB"/>
<path fill-rule="evenodd" clip-rule="evenodd" d="M35.2158 122.602L101.102 101.155C101.68 100.965 102.139 100.514 102.337 99.9349C102.535 99.3557 102.449 98.7194 102.104 98.2141C102.104 98.2141 88.1523 77.6944 83.3013 70.5595C81.8446 68.4192 79.1494 67.4951 76.6828 68.2949L6.78441 91.0053C5.04434 91.572 3.67342 92.92 3.07496 94.6526C2.48085 96.3808 2.73316 98.2881 3.75483 99.8069C9.36343 108.123 21.2058 125.682 21.2058 125.682C21.808 126.568 23.0155 126.805 23.9054 126.203C24.791 125.605 25.0277 124.397 24.4299 123.508C24.4299 123.508 12.5838 105.952 6.97457 97.6362C6.63277 97.1272 6.55136 96.4939 6.7496 95.9154C6.94785 95.3405 7.40586 94.89 7.98505 94.6998L77.8829 71.9895C78.7063 71.7216 79.6036 72.0323 80.089 72.7427L97.4393 98.2607L34.0158 118.908C32.9941 119.238 32.4386 120.338 32.7692 121.356C33.1029 122.373 34.1985 122.932 35.2158 122.602Z" fill="#738BAB"/>
<path fill-rule="evenodd" clip-rule="evenodd" d="M99.8984 101.154L177.58 126.439C178.403 126.707 179.308 126.401 179.793 125.682C179.793 125.682 191.636 108.122 197.244 99.8062C198.266 98.2874 198.518 96.3808 197.924 94.6519C197.326 92.9193 195.955 91.572 194.215 91.0046L124.317 68.2943C121.851 67.4939 119.155 68.4186 117.699 70.5589L104.112 90.5385C103.51 91.4278 103.739 92.6359 104.625 93.2381C105.514 93.8403 106.722 93.611 107.324 92.7254L120.911 72.742C121.396 72.0311 122.294 71.7203 123.117 71.9888L193.015 94.6992C193.593 94.8893 194.052 95.3399 194.25 95.9147C194.449 96.4933 194.367 97.1265 194.025 97.6355L177.389 122.295L101.102 97.4603C100.08 97.1259 98.9855 97.6852 98.6555 98.7069C98.3211 99.7248 98.8804 100.82 99.8984 101.154Z" fill="#738BAB"/>
<path fill-rule="evenodd" clip-rule="evenodd" d="M159.332 124.587L100.5 143.673L41.668 124.587L100.5 105.435L159.332 124.587Z" fill="#1B96FF"/>
<path fill-rule="evenodd" clip-rule="evenodd" d="M81.0722 99.127C80.0275 97.6548 79.1301 96.1751 78.3769 94.6955C77.8916 93.7397 76.722 93.3593 75.7668 93.8484C74.811 94.3338 74.4307 95.5033 74.9161 96.4585C75.7513 98.1016 76.7456 99.7448 77.9071 101.38C78.5286 102.254 79.7404 102.456 80.6142 101.838C81.4879 101.216 81.6936 100.001 81.0722 99.127Z" fill="#738BAB"/>
<path fill-rule="evenodd" clip-rule="evenodd" d="M75.6844 86.6166C75.3352 84.4024 75.319 82.2391 75.626 80.1653C75.7814 79.1051 75.0475 78.1182 73.9866 77.9629C72.9264 77.8075 71.9396 78.5415 71.7805 79.6023C71.4232 82.0489 71.435 84.605 71.8464 87.2188C72.0135 88.279 73.0079 89.0017 74.0681 88.8346C75.1251 88.6674 75.8516 87.6731 75.6844 86.6166Z" fill="#738BAB"/>
</svg>
